<svg viewBox="0 0 100 150" xmlns="http://www.w3.org/2000/svg">
    <!-- Cap (Red) -->
    <path d="M 10 30 C 10 5 90 5 90 30 L 90 40 L 10 40 Z" fill="#E53935" />
    <!-- Cap Brim (Dark Red) -->
    <path d="M 10 40 C 30 35 70 35 90 40 L 90 45 L 10 45 Z" fill="#C62828" />
    
    <!-- Head/Skin (Peach) -->
    <circle cx="50" cy="65" r="25" fill="#FFCC99" />
    
    <!-- Mustache (Brown) -->
    <path d="M 35 75 C 35 70 65 70 65 75 L 60 80 C 60 85 40 85 40 80 Z" fill="#6D4C41" />
    
    <!-- Eyes (White) -->
    <circle cx="45" cy="60" r="3" fill="white" stroke="black" stroke-width="0.5" />
    <circle cx="55" cy="60" r="3" fill="white" stroke="black" stroke-width="0.5" />
    
    <!-- Shirt/Body (Red) -->
    <rect x="30" y="90" width="40" height="45" rx="5" fill="#E53935" />
    
    <!-- Overalls (Blue) -->
    <rect x="25" y="100" width="50" height="35" rx="5" fill="#1976D2" />
    
    <!-- Overall Straps (Darker Blue) -->
    <rect x="30" y="90" width="5" height="15" fill="#1565C0" />
    <rect x="65" y="90" width="5" height="15" fill="#1565C0" />
    
    <!-- Legs -->
    <rect x="30" y="135" width="15" height="15" rx="3" fill="#1976D2" />
    <rect x="55" y="135" width="15" height="15" rx="3" fill="#1976D2" />
    
    <!-- Boots -->
    <rect x="25" y="145" width="25" height="10" rx="3" fill="#6D4C41" />
    <rect x="50" y="145" width="25" height="10" rx="3" fill="#6D4C41" />
</svg>
